{
  "asset": {
    "version": "2.0",
    "generator": "THREE.GLTFExporter r180"
  },
  "scenes": [
    {
      "name": "AuxScene",
      "nodes": [
        0
      ]
    }
  ],
  "scene": 0,
  "nodes": [
    {
      "name": "AuxScene",
      "children": [
        1
      ]
    },
    {
      "children": [
        2,
        27
      ]
    },
    {
      "children": [
        3
      ]
    },
    {
      "matrix": [
        2,
        0,
        0,
        0,
        0,
        2,
        0,
        0,
        0,
        0,
        2,
        0,
        0,
        0,
        0,
        1
      ],
      "children": [
        4
      ]
    },
    {
      "matrix": [
        0.01,
        0,
        0,
        0,
        0,
        0.01,
        0,
        0,
        0,
        0,
        0.01,
        0,
        0,
        0,
        0,
        1
      ],
      "children": [
        5
      ]
    },
    {
      "name": "Scene_1",
      "extras": {
        "name": "Scene 1"
      },
      "children": [
        6,
        22,
        25,
        26
      ]
    },
    {
      "matrix": [
        155.61160515639105,
        0,
        0,
        0,
        0,
        155.61160515639105,
        0,
        0,
        0,
        0,
        155.61160515639105,
        0,
        0,
        0,
        0,
        1
      ],
      "name": "wrapped_flower_bouquet_(1)",
      "extras": {
        "name": "wrapped_flower_bouquet (1)"
      },
      "children": [
        7
      ]
    },
    {
      "matrix": [
        0.009999999776482582,
        0,
        0,
        0,
        0,
        2.2204459996194763e-18,
        -0.009999999776482582,
        0,
        0,
        0.009999999776482582,
        2.2204459996194763e-18,
        0,
        0,
        0,
        0,
        1
      ],
      "name": "Sketchfab_model",
      "extras": {
        "name": "Sketchfab_model"
      },
      "children": [
        8
      ]
    },
    {
      "matrix": [
        1,
        0,
        0,
        0,
        0,
        2.220446049250313e-16,
        1,
        0,
        0,
        -1,
        2.220446049250313e-16,
        0,
        0,
        0,
        0,
        1
      ],
      "name": "SM_BuquetA_v11fbx",
      "extras": {
        "name": "SM_BuquetA_v11fbx"
      },
      "children": [
        9
      ]
    },
    {
      "name": "RootNode",
      "extras": {
        "name": "RootNode"
      },
      "children": [
        10,
        17
      ]
    },
    {
      "matrix": [
        100,
        0,
        0,
        0,
        0,
        -0.000016292067894774224,
        -99.99999999999869,
        0,
        0,
        99.99999999999869,
        -0.000016292067894774224,
        0,
        0,
        0,
        0,
        1
      ],
      "name": "Parcels",
      "extras": {
        "name": "Parcels"
      },
      "children": [
        11,
        13,
        15
      ]
    },
    {
      "matrix": [
        1,
        0,
        0,
        0,
        0,
        1,
        -2.646977960169688e-23,
        0,
        0,
        2.646977960169688e-23,
        1,
        0,
        -0.015048027038574219,
        0.07748100906610489,
        0.1725856363773346,
        1
      ],
      "name": "inner",
      "extras": {
        "name": "inner"
      },
      "children": [
        12
      ]
    },
    {
      "name": "inner_Parcel1_0",
      "extras": {
        "name": "inner_Parcel1_0"
      },
      "mesh": 0
    },
    {
      "matrix": [
        1,
        0,
        0,
        0,
        0,
        1,
        -2.646977960169688e-23,
        0,
        0,
        2.646977960169688e-23,
        1,
        0,
        -0.024959731847047806,
        0.005714698228985071,
        -0.006239352747797966,
        1
      ],
      "name": "parcel_knot",
      "extras": {
        "name": "parcel_knot"
      },
      "children": [
        14
      ]
    },
    {
      "name": "parcel_knot_Ribbons1_0",
      "extras": {
        "name": "parcel_knot_Ribbons1_0"
      },
      "mesh": 1
    },
    {
      "matrix": [
        1,
        0,
        0,
        0,
        0,
        1,
        -2.646977960169688e-23,
        0,
        0,
        2.646977960169688e-23,
        1,
        0,
        -0.015220725908875465,
        0.07285156100988388,
        0.13901428878307343,
        1
      ],
      "name": "outer",
      "extras": {
        "name": "outer"
      },
      "children": [
        16
      ]
    },
    {
      "name": "outer_Parcel2_0",
      "extras": {
        "name": "outer_Parcel2_0"
      },
      "mesh": 2
    },
    {
      "matrix": [
        100,
        0,
        0,
        0,
        0,
        -0.000016292067894774224,
        -99.99999999999869,
        0,
        0,
        99.99999999999869,
        -0.000016292067894774224,
        0,
        0,
        0,
        0,
        1
      ],
      "name": "Ribbon",
      "extras": {
        "name": "Ribbon"
      },
      "children": [
        18,
        20
      ]
    },
    {
      "matrix": [
        1,
        0,
        0,
        0,
        0,
        1,
        -2.646977960169688e-23,
        0,
        0,
        2.646977960169688e-23,
        1,
        0,
        0.0035433736629784107,
        -0.013741661794483662,
        -0.006589696742594242,
        1
      ],
      "name": "ribbon_knot",
      "extras": {
        "name": "ribbon_knot"
      },
      "children": [
        19
      ]
    },
    {
      "name": "ribbon_knot_Ribbons1_0",
      "extras": {
        "name": "ribbon_knot_Ribbons1_0"
      },
      "mesh": 3
    },
    {
      "matrix": [
        1,
        0,
        0,
        0,
        0,
        1,
        -2.646977960169688e-23,
        0,
        0,
        2.646977960169688e-23,
        1,
        0,
        0.005138922482728958,
        -0.008338906802237034,
        -0.005999713204801083,
        1
      ],
      "name": "ribbon",
      "extras": {
        "name": "ribbon"
      },
      "children": [
        21
      ]
    },
    {
      "name": "ribbon_Ribbons1_0",
      "extras": {
        "name": "ribbon_Ribbons1_0"
      },
      "mesh": 4
    },
    {
      "matrix": [
        0.5883484054145521,
        0.392232270276368,
        -0.7071067811865472,
        0,
        -0.5547001962252291,
        0.8320502943378436,
        2.7755575615628914e-17,
        0,
        0.5883484054145518,
        0.3922322702763679,
        0.7071067811865476,
        0,
        0,
        0,
        0,
        1
      ],
      "name": "Directional_Light",
      "extras": {
        "name": "Directional Light"
      },
      "children": [
        23,
        24
      ],
      "extensions": {
        "KHR_lights_punctual": {
          "light": 0
        }
      }
    },
    {
      "matrix": [
        1,
        0,
        0,
        0,
        0,
        1,
        0,
        0,
        0,
        0,
        1,
        0,
        0,
        0,
        -1,
        1
      ]
    },
    {
      "matrix": [
        1,
        0,
        0,
        0,
        0,
        1,
        0,
        0,
        0,
        0,
        1,
        0,
        0,
        0,
        -1,
        1
      ]
    },
    {
      "matrix": [
        0.9892098967914176,
        -6.938893903907228e-18,
        -0.1465052220568028,
        0,
        -0.09779600579190659,
        0.7445867278740359,
        -0.660323061784901,
        0,
        0.10908584390773382,
        0.6675257333420463,
        0.7365525602325342,
        0,
        28.746311891441483,
        175.9064443086113,
        194.09640025146317,
        1
      ],
      "camera": 0
    },
    {
      "matrix": [
        1,
        0,
        0,
        0,
        0,
        1,
        0,
        0,
        0,
        0,
        1,
        0,
        0,
        1,
        0,
        1
      ],
      "name": "Default_Ambient_Light",
      "extras": {
        "name": "Default Ambient Light"
      }
    },
    {
      "matrix": [
        1,
        0,
        0,
        0,
        0,
        1,
        0,
        0,
        0,
        0,
        1,
        0,
        0.5,
        0,
        0,
        1
      ],
      "children": [
        28
      ]
    },
    {
      "matrix": [
        0.15,
        0,
        0,
        0,
        0,
        0.15,
        0,
        0,
        0,
        0,
        0.15,
        0,
        0,
        0,
        0,
        1
      ],
      "name": "Scene",
      "extras": {
        "name": "Scene"
      },
      "children": [
        29
      ]
    },
    {
      "matrix": [
        1,
        0,
        0,
        0,
        0,
        -1.3435885655173873e-7,
        1.0000001343588565,
        0,
        0,
        -1.0000001343588565,
        -1.3435885655173873e-7,
        0,
        0,
        0,
        0,
        1
      ],
      "name": "Root",
      "extras": {
        "name": "Root"
      },
      "children": [
        30
      ]
    },
    {
      "name": "Scenes",
      "extras": {
        "name": "Scenes"
      },
      "children": [
        31
      ]
    },
    {
      "name": "Scene_1_1",
      "extras": {
        "name": "Scene"
      },
      "children": [
        32
      ]
    },
    {
      "matrix": [
        1,
        0,
        0,
        0,
        0,
        1,
        0,
        0,
        0,
        0,
        1,
        0,
        -4.746271133422852,
        0.5251317024230957,
        -2.119215488433838,
        1
      ],
      "name": "Geometry",
      "extras": {
        "name": "Geometry"
      },
      "mesh": 5
    }
  ],
  "bufferViews": [
    {
      "buffer": 0,
      "byteOffset": 0,
      "byteLength": 23976,
      "target": 34962,
      "byteStride": 12
    },
    {
      "buffer": 0,
      "byteOffset": 23976,
      "byteLength": 23976,
      "target": 34962,
      "byteStride": 12
    },
    {
      "buffer": 0,
      "byteOffset": 47952,
      "byteLength": 15984,
      "target": 34962,
      "byteStride": 8
    },
    {
      "buffer": 0,
      "byteOffset": 63936,
      "byteLength": 47808,
      "target": 34963
    },
    {
      "buffer": 0,
      "byteOffset": 111744,
      "byteLength": 17280,
      "target": 34962,
      "byteStride": 12
    },
    {
      "buffer": 0,
      "byteOffset": 129024,
      "byteLength": 17280,
      "target": 34962,
      "byteStride": 12
    },
    {
      "buffer": 0,
      "byteOffset": 146304,
      "byteLength": 11520,
      "target": 34962,
      "byteStride": 8
    },
    {
      "buffer": 0,
      "byteOffset": 157824,
      "byteLength": 21936,
      "target": 34963
    },
    {
      "buffer": 0,
      "byteOffset": 179760,
      "byteLength": 100896,
      "target": 34962,
      "byteStride": 12
    },
    {
      "buffer": 0,
      "byteOffset": 280656,
      "byteLength": 100896,
      "target": 34962,
      "byteStride": 12
    },
    {
      "buffer": 0,
      "byteOffset": 381552,
      "byteLength": 67264,
      "target": 34962,
      "byteStride": 8
    },
    {
      "buffer": 0,
      "byteOffset": 448816,
      "byteLength": 201696,
      "target": 34963
    },
    {
      "buffer": 0,
      "byteOffset": 650512,
      "byteLength": 4800,
      "target": 34962,
      "byteStride": 12
    },
    {
      "buffer": 0,
      "byteOffset": 655312,
      "byteLength": 4800,
      "target": 34962,
      "byteStride": 12
    },
    {
      "buffer": 0,
      "byteOffset": 660112,
      "byteLength": 3200,
      "target": 34962,
      "byteStride": 8
    },
    {
      "buffer": 0,
      "byteOffset": 663312,
      "byteLength": 7344,
      "target": 34963
    },
    {
      "buffer": 0,
      "byteOffset": 670656,
      "byteLength": 13824,
      "target": 34962,
      "byteStride": 12
    },
    {
      "buffer": 0,
      "byteOffset": 684480,
      "byteLength": 13824,
      "target": 34962,
      "byteStride": 12
    },
    {
      "buffer": 0,
      "byteOffset": 698304,
      "byteLength": 9216,
      "target": 34962,
      "byteStride": 8
    },
    {
      "buffer": 0,
      "byteOffset": 707520,
      "byteLength": 22944,
      "target": 34963
    },
    {
      "buffer": 0,
      "byteOffset": 730464,
      "byteLength": 12840,
      "target": 34962,
      "byteStride": 12
    },
    {
      "buffer": 0,
      "byteOffset": 743304,
      "byteLength": 12840,
      "target": 34962,
      "byteStride": 12
    },
    {
      "buffer": 0,
      "byteOffset": 756144,
      "byteLength": 8560,
      "target": 34962,
      "byteStride": 8
    },
    {
      "buffer": 0,
      "byteOffset": 764704,
      "byteLength": 9288,
      "target": 34963
    }
  ],
  "buffers": [
    {
      "byteLength": 773992,
      "uri": "data:application/octet-stream;base64,"
    }
  ],
  "accessors": [
    {
      "bufferView": 0,
      "componentType": 5126,
      "count": 1998,
      "max": [
        0.9983484745025635,
        0.9985289573669434,
        0.9280360341072083
      ],
      "min": [
        -0.9983848333358765,
        -0.9989050030708313,
        -0.9280329346656799
      ],
      "type": "VEC3"
    },
    {
      "bufferView": 1,
      "componentType": 5126,
      "count": 1998,
      "max": [
        0.252979040145874,
        0.3015602231025696,
        0.2809072732925415
      ],
      "min": [
        -0.26470357179641724,
        -0.1391821801662445,
        -0.17953990399837494
      ],
      "type": "VEC3"
    },
    {
      "bufferView": 2,
      "componentType": 5126,
      "count": 1998,
      "max": [
        0.8961325883865356,
        0.9948728084564209
      ],
      "min": [
        0.006688680034130812,
        0.0061043924652040005
      ],
      "type": "VEC2"
    },
    {
      "bufferView": 3,
      "componentType": 5125,
      "count": 11952,
      "max": [
        1997
      ],
      "min": [
        0
      ],
      "type": "SCALAR"
    },
    {
      "bufferView": 4,
      "componentType": 5126,
      "count": 1440,
      "max": [
        0.9998639225959778,
        0.9997240304946899,
        0.837522029876709
      ],
      "min": [
        -0.999865710735321,
        -0.9997382164001465,
        -0.8141393661499023
      ],
      "type": "VEC3"
    },
    {
      "bufferView": 5,
      "componentType": 5126,
      "count": 1440,
      "max": [
        0.036953430622816086,
        0.033172763884067535,
        0.01794666238129139
      ],
      "min": [
        -0.03306998312473297,
        -0.03847175091505051,
        -0.01746458187699318
      ],
      "type": "VEC3"
    },
    {
      "bufferView": 6,
      "componentType": 5126,
      "count": 1440,
      "max": [
        0.7526019215583801,
        0.7541965842247009
      ],
      "min": [
        0.1681743562221527,
        0.4977833926677704
      ],
      "type": "VEC2"
    },
    {
      "bufferView": 7,
      "componentType": 5125,
      "count": 5484,
      "max": [
        1439
      ],
      "min": [
        0
      ],
      "type": "SCALAR"
    },
    {
      "bufferView": 8,
      "componentType": 5126,
      "count": 8408,
      "max": [
        0.9992021322250366,
        0.9995440244674683,
        0.9370742440223694
      ],
      "min": [
        -0.9985785484313965,
        -0.999670147895813,
        -0.9370770454406738
      ],
      "type": "VEC3"
    },
    {
      "bufferView": 9,
      "componentType": 5126,
      "count": 8408,
      "max": [
        0.27489542961120605,
        0.33564114570617676,
        0.29175031185150146
      ],
      "min": [
        -0.30666035413742065,
        -0.14663194119930267,
        -0.2953389286994934
      ],
      "type": "VEC3"
    },
    {
      "bufferView": 10,
      "componentType": 5126,
      "count": 8408,
      "max": [
        0.9954214692115784,
        0.8506667613983154
      ],
      "min": [
        0.007862143218517303,
        0.004578474909067154
      ],
      "type": "VEC2"
    },
    {
      "bufferView": 11,
      "componentType": 5125,
      "count": 50424,
      "max": [
        8407
      ],
      "min": [
        0
      ],
      "type": "SCALAR"
    },
    {
      "bufferView": 12,
      "componentType": 5126,
      "count": 400,
      "max": [
        0.9685200452804565,
        0.7440664768218994,
        0.9956782460212708
      ],
      "min": [
        -0.9684728980064392,
        -0.7422786355018616,
        -0.9957898259162903
      ],
      "type": "VEC3"
    },
    {
      "bufferView": 13,
      "componentType": 5126,
      "count": 400,
      "max": [
        0.009103650227189064,
        0.00832873024046421,
        0.010913373902440071
      ],
      "min": [
        -0.009358645416796207,
        -0.008024632930755615,
        -0.010318391025066376
      ],
      "type": "VEC3"
    },
    {
      "bufferView": 14,
      "componentType": 5126,
      "count": 400,
      "max": [
        0.7520833015441895,
        0.748393714427948
      ],
      "min": [
        0.16778534650802612,
        0.44178900122642517
      ],
      "type": "VEC2"
    },
    {
      "bufferView": 15,
      "componentType": 5125,
      "count": 1836,
      "max": [
        399
      ],
      "min": [
        0
      ],
      "type": "SCALAR"
    },
    {
      "bufferView": 16,
      "componentType": 5126,
      "count": 1152,
      "max": [
        0.9992917776107788,
        0.9988628625869751,
        0.9817165732383728
      ],
      "min": [
        -0.9993165731430054,
        -0.9988643527030945,
        -0.9839727878570557
      ],
      "type": "VEC3"
    },
    {
      "bufferView": 17,
      "componentType": 5126,
      "count": 1152,
      "max": [
        0.10300996899604797,
        0.13907238841056824,
        0.04767772927880287
      ],
      "min": [
        -0.06052253767848015,
        -0.08142648637294769,
        -0.06920794397592545
      ],
      "type": "VEC3"
    },
    {
      "bufferView": 18,
      "componentType": 5126,
      "count": 1152,
      "max": [
        0.9964565634727478,
        0.9979680776596069
      ],
      "min": [
        0,
        0.005158516112715006
      ],
      "type": "VEC2"
    },
    {
      "bufferView": 19,
      "componentType": 5125,
      "count": 5736,
      "max": [
        1151
      ],
      "min": [
        0
      ],
      "type": "SCALAR"
    },
    {
      "bufferView": 20,
      "componentType": 5126,
      "count": 1070,
      "max": [
        5.58725118637085,
        0.373277485370636,
        0.25293758511543274
      ],
      "min": [
        3.9052910804748535,
        -1.4235409498214722,
        -5.985494136810303
      ],
      "type": "VEC3"
    },
    {
      "bufferView": 21,
      "componentType": 5126,
      "count": 1070,
      "max": [
        0.9980176091194153,
        0.9999291300773621,
        1
      ],
      "min": [
        -0.9988076090812683,
        -0.9999618530273438,
        -0.7538946270942688
      ],
      "type": "VEC3"
    },
    {
      "bufferView": 22,
      "componentType": 5126,
      "count": 1070,
      "max": [
        0.9921582937240601,
        0.9892516136169434
      ],
      "min": [
        0,
        0.013184070587158203
      ],
      "type": "VEC2"
    },
    {
      "bufferView": 23,
      "componentType": 5123,
      "count": 4644,
      "max": [
        1069
      ],
      "min": [
        0
      ],
      "type": "SCALAR"
    }
  ],
  "materials": [
    {
      "pbrMetallicRoughness": {
        "baseColorFactor": [
          0.9046611743890203,
          0.5972017883558645,
          0.34191442489801843,
          1
        ],
        "metallicFactor": 1,
        "roughnessFactor": 1
      }
    },
    {
      "pbrMetallicRoughness": {
        "baseColorFactor": [
          0.9046611743890203,
          0.5972017883558645,
          0.34191442489801843,
          1
        ],
        "metallicFactor": 1,
        "roughnessFactor": 1
      }
    },
    {
      "pbrMetallicRoughness": {
        "baseColorFactor": [
          0.9046611743890203,
          0.5972017883558645,
          0.34191442489801843,
          1
        ],
        "metallicFactor": 1,
        "roughnessFactor": 1
      }
    },
    {
      "pbrMetallicRoughness": {
        "baseColorFactor": [
          0.9734452903978066,
          0.35640014413537763,
          0.46778379610254284,
          1
        ],
        "metallicFactor": 1,
        "roughnessFactor": 1
      }
    },
    {
      "pbrMetallicRoughness": {
        "baseColorFactor": [
          0.9734452903978066,
          0.35640014413537763,
          0.46778379610254284,
          1
        ],
        "metallicFactor": 1,
        "roughnessFactor": 1
      }
    },
    {
      "pbrMetallicRoughness": {
        "metallicFactor": 0,
        "roughnessFactor": 0.47122713923454285,
        "baseColorTexture": {
          "index": 0,
          "texCoord": 0,
          "extensions": {
            "KHR_texture_transform": {
              "offset": [
                0.019999999552965164,
                -0.23999999463558197
              ]
            }
          }
        }
      },
      "doubleSided": true,
      "name": "Material_11"
    }
  ],
  "meshes": [
    {
      "primitives": [
        {
          "mode": 4,
          "attributes": {
            "NORMAL": 0,
            "POSITION": 1,
            "TEXCOORD_0": 2
          },
          "extras": {
            "parameters": {
              "width": 0.5176826119422913,
              "height": 0.4407424032688141,
              "depth": 0.46044717729091644,
              "subdivisions": 0
            },
            "type": "NonParametricGeometry"
          },
          "indices": 3,
          "material": 0
        }
      ]
    },
    {
      "primitives": [
        {
          "mode": 4,
          "attributes": {
            "NORMAL": 4,
            "POSITION": 5,
            "TEXCOORD_0": 6
          },
          "extras": {
            "parameters": {
              "width": 0.07002341374754906,
              "height": 0.07164451479911804,
              "depth": 0.03541124425828457,
              "subdivisions": 0
            },
            "type": "NonParametricGeometry"
          },
          "indices": 7,
          "material": 1
        }
      ]
    },
    {
      "primitives": [
        {
          "mode": 4,
          "attributes": {
            "NORMAL": 8,
            "POSITION": 9,
            "TEXCOORD_0": 10
          },
          "extras": {
            "parameters": {
              "width": 0.5815557837486267,
              "height": 0.48227308690547943,
              "depth": 0.5870892405509949,
              "subdivisions": 0
            },
            "type": "NonParametricGeometry"
          },
          "indices": 11,
          "material": 2
        }
      ]
    },
    {
      "primitives": [
        {
          "mode": 4,
          "attributes": {
            "NORMAL": 12,
            "POSITION": 13,
            "TEXCOORD_0": 14
          },
          "extras": {
            "parameters": {
              "width": 0.01846229564398527,
              "height": 0.016353363171219826,
              "depth": 0.021231764927506447,
              "subdivisions": 0
            },
            "type": "NonParametricGeometry"
          },
          "indices": 15,
          "material": 3
        }
      ]
    },
    {
      "primitives": [
        {
          "mode": 4,
          "attributes": {
            "NORMAL": 16,
            "POSITION": 17,
            "TEXCOORD_0": 18
          },
          "extras": {
            "parameters": {
              "width": 0.16353250667452812,
              "height": 0.22049887478351593,
              "depth": 0.11688567325472832,
              "subdivisions": 0
            },
            "type": "NonParametricGeometry"
          },
          "indices": 19,
          "material": 4
        }
      ]
    },
    {
      "primitives": [
        {
          "mode": 4,
          "attributes": {
            "POSITION": 20,
            "NORMAL": 21,
            "TEXCOORD_0": 22
          },
          "indices": 23,
          "material": 5
        }
      ]
    }
  ],
  "extensions": {
    "KHR_lights_punctual": {
      "lights": [
        {
          "name": "Directional_Light",
          "color": [
            1,
            1,
            1
          ],
          "intensity": 0.7,
          "type": "directional"
        }
      ]
    }
  },
  "cameras": [
    {
      "type": "perspective",
      "perspective": {
        "aspectRatio": 2.1041095890410957,
        "yfov": 0.7853981633974483,
        "zfar": 100000,
        "znear": 70
      }
    }
  ],
  "textures": [
    {
      "sampler": 0,
      "source": 0,
      "name": "Texture_446_true"
    }
  ],
  "samplers": [
    {
      "magFilter": 9729,
      "minFilter": 9987,
      "wrapS": 10497,
      "wrapT": 10497
    }
  ],
  "images": [
    {
      "mimeType": "image/png",
      "uri": "data:image/png;base64,"
    }
  ],
  "extensionsUsed": [
    "KHR_lights_punctual",
    "KHR_texture_transform"
  ]
}